/* XPM */
static char *favicon[] = {
/* columns rows colors chars-per-pixel */
"16 12 191 2",
"   c #000009",
".  c #02020E",
"X  c #04040D",
"o  c #100B0C",
"O  c #0C0B15",
"+  c #1F1A1B",
"@  c #221E1E",
"#  c #1D1D22",
"$  c #2B2A2F",
"%  c #312F2D",
"&  c #322E2C",
"*  c #392F29",
"=  c #373132",
"-  c #3A3537",
";  c #393638",
":  c #393739",
">  c #3B393F",
",  c #3E383C",
"<  c #413530",
"1  c #413A36",
"2  c #493B36",
"3  c #473A38",
"4  c #403C38",
"5  c #443C3B",
"6  c #463F3D",
"7  c #483E38",
"8  c #503E3B",
"9  c #4A423F",
"0  c #4B423F",
"q  c #464240",
"w  c #404044",
"e  c #444549",
"r  c #4B4648",
"t  c #584D4B",
"y  c #4F4C50",
"u  c #595253",
"i  c #5E5654",
"p  c #54555A",
"a  c #5B5858",
"s  c #5E5958",
"d  c #5D5A58",
"f  c #664C47",
"g  c #7B5047",
"h  c #615859",
"j  c #625D5D",
"k  c #676564",
"l  c #6E6461",
"z  c #6D6663",
"x  c #6F6B6A",
"c  c #6B6A6C",
"v  c #726B67",
"b  c #726E6D",
"n  c #7A6F6B",
"m  c #77706C",
"M  c #7A726D",
"N  c #737171",
"B  c #747170",
"V  c #7B7673",
"C  c #7F7771",
"Z  c #797574",
"A  c #7A7774",
"S  c #7F7974",
"D  c #8D5A55",
"F  c #827570",
"G  c #847774",
"H  c #897673",
"J  c #807872",
"K  c #817A75",
"L  c #817D78",
"P  c #87817C",
"I  c #85807E",
"U  c #878380",
"Y  c #858382",
"T  c #8B8082",
"R  c #898581",
"E  c #8A8482",
"W  c #8C8582",
"Q  c #888883",
"!  c #8B8885",
"~  c #908683",
"^  c #98908D",
"/  c #938E91",
"(  c #979592",
")  c #969595",
"_  c #999391",
"`  c #999590",
"'  c #9B9591",
"]  c #9C9793",
"[  c #9B9694",
"{  c #9F9B97",
"}  c #A18C88",
"|  c #A49190",
" . c #B09F9D",
".. c #A3A19F",
"X. c #A7A29E",
"o. c #BDA59E",
"O. c #AFA5A3",
"+. c #ADA7A3",
"@. c #ADA3A4",
"#. c #ABA5A5",
"$. c #AEA8A5",
"%. c #AFA8A7",
"&. c #ADAAA9",
"*. c #AEACAA",
"=. c #B7A8A7",
"-. c #B1AAA8",
";. c #B0ADA9",
":. c #B4ADAB",
">. c #B1AEAC",
",. c #B9B1AE",
"<. c #BAB6B1",
"1. c #BCB5B3",
"2. c #B9B7B4",
"3. c #BDBAB6",
"4. c #BFBAB7",
"5. c #D89782",
"6. c #D6A48F",
"7. c #DCB39E",
"8. c #C0B7B5",
"9. c #C9B6B2",
"0. c #CEBFB6",
"q. c #C0BDB8",
"w. c #C2BCB9",
"e. c #C3BCB9",
"r. c #C6C0BC",
"t. c #C3C4BE",
"y. c #C9C2BF",
"u. c #D3C2BB",
"i. c #EDC8B2",
"p. c #ECC9B8",
"a. c #FFD5B3",
"s. c #FFD2B4",
"d. c #F9D1BB",
"f. c #C7C3C0",
"g. c #C9C5C1",
"h. c #C9C7C2",
"j. c #C9C6C3",
"k. c #CCC8C5",
"l. c #CEC8C5",
"z. c #CAC7C8",
"x. c #D4C6C3",
"c. c #D4C7C3",
"v. c #D1CCC9",
"b. c #D0CDC9",
"n. c #D1CFCA",
"m. c #D2CFCD",
"M. c #D3CFCD",
"N. c #D7CECC",
"B. c #D2D1CC",
"V. c #D7D4CF",
"C. c #D9D0CE",
"Z. c #D6D6D7",
"A. c #D7D6D7",
"S. c #D9D3D1",
"D. c #D9D5D1",
"F. c #D9D7D3",
"G. c #DCD6D3",
"H. c #DED7D5",
"J. c #DED8D5",
"K. c #DED9D6",
"L. c #DFD9D7",
"P. c #DEDAD6",
"I. c #DCD8D8",
"U. c #E0D8D6",
"Y. c #E4DBD9",
"T. c #E3DFDC",
"R. c #E6DFDD",
"E. c #E5E0DD",
"W. c #E4E1DD",
"Q. c #E7E2DF",
"!. c #F6E0D3",
"~. c #E9E3E0",
"^. c #E9E4E1",
"/. c #EAE5E3",
"(. c #EDE5E2",
"). c #EBE6E4",
"_. c #EEE8E5",
"`. c #EEE9E5",
"'. c #EEEAE7",
"]. c #EFEAE7",
"[. c #EFEBE8",
"{. c #F0ECE9",
"}. c #F1EDEA",
"|. c #F1EEEB",
" X c #F4EEEB",
".X c #F8F3F0",
"XX c #F8F4F1",
"oX c #FDFAF7",
"OX c #FEFAF7",
"+X c #FFFCFA",
"@X c #FFFFFB",
/* pixels */
"N B V P S K C M n F b v z s V t.",
", r x Z U W W U H D b u = @ @ R ",
"..2.h.h.e.e.-.e.8.5.0.j.e.` - , ",
"B.D.k.v.L.~.H.U.L.d.p.Z.l.{.*.: ",
"n.T.}.W.OXD.=.O.@.!.s.z.$.f.m.c ",
"W.'.XX[._. X .| T x.a.u./ ` W.>.",
"<.+./..X X@XC.9.C.Y.7.i.A.<.L.m.",
"` X.$.).{.e.R.@XOX(.o.6.H./.#.&.",
"L { ] D.~.^ :.x.} h t g 8 a j ) ",
"k R V.L.'.,.l 3 f i 1 G 9 d % e ",
"( 3.b.C.] 6 9 7 2 ~ : y $ > w p ",
"! ;.q.R & o q C * < 5 O .   X # "
};
